<svg width="28" height="23" viewBox="0 0 28 23" fill="none" xmlns="http://www.w3.org/2000/svg">
<path d="M23.7037 2.58736C21.8881 1.75413 19.9723 1.15944 18.004 0.81811C17.9862 0.815107 17.9678 0.817701 17.9516 0.825535C17.9353 0.833369 17.9218 0.846059 17.913 0.86186C17.6662 1.29936 17.3932 1.87161 17.2025 2.31961C15.0808 1.99762 12.9227 1.99762 10.801 2.31961C10.5882 1.82054 10.3475 1.33386 10.08 0.86186C10.071 0.846232 10.0575 0.833689 10.0413 0.825879C10.025 0.81807 10.0068 0.815362 9.989 0.81811C8.02025 1.15761 6.104 1.75261 4.28925 2.58736C4.27372 2.59329 4.26073 2.60442 4.2525 2.61886C0.622998 8.04211 -0.372752 13.3324 0.115498 18.5561C0.117248 18.5806 0.132998 18.6051 0.152248 18.6209C2.26577 20.1864 4.62978 21.3818 7.1435 22.1559C7.16125 22.1615 7.18032 22.1613 7.19794 22.1553C7.21556 22.1493 7.23082 22.1379 7.2415 22.1226C7.7805 21.3876 8.26 20.6124 8.673 19.7969C8.68161 19.7801 8.68455 19.7609 8.6814 19.7423C8.67825 19.7237 8.66916 19.7066 8.6555 19.6936C8.64645 19.6851 8.63572 19.6785 8.624 19.6744C7.87003 19.3846 7.13981 19.0365 6.44 18.6331C6.42045 18.622 6.40591 18.6039 6.3994 18.5824C6.39288 18.5609 6.39489 18.5377 6.405 18.5176C6.41095 18.5046 6.41996 18.4932 6.43125 18.4844C6.57825 18.3741 6.72525 18.2586 6.86525 18.1431C6.87762 18.1332 6.89245 18.1268 6.90818 18.1246C6.9239 18.1225 6.93991 18.1246 6.9545 18.1309C11.5377 20.2239 16.499 20.2239 21.0262 18.1309C21.0414 18.1243 21.058 18.122 21.0743 18.1242C21.0907 18.1263 21.1061 18.1329 21.119 18.1431C21.259 18.2586 21.406 18.3741 21.553 18.4844C21.5649 18.4931 21.5745 18.5046 21.5808 18.5179C21.5872 18.5312 21.5902 18.5459 21.5895 18.5606C21.5888 18.5754 21.5845 18.5897 21.5769 18.6023C21.5693 18.615 21.5587 18.6256 21.546 18.6331C20.8478 19.0401 20.1166 19.3879 19.3602 19.6726C19.3482 19.677 19.3372 19.6839 19.3282 19.693C19.3191 19.7021 19.3121 19.713 19.3077 19.7251C19.3037 19.7368 19.3021 19.7492 19.303 19.7615C19.3039 19.7739 19.3073 19.7859 19.313 19.7969C19.733 20.6106 20.2142 21.3876 20.7427 22.1226C20.7534 22.1379 20.7687 22.1493 20.7863 22.1553C20.8039 22.1613 20.823 22.1615 20.8407 22.1559C23.3587 21.3842 25.7265 20.1887 27.8425 18.6209C27.8531 18.6135 27.8619 18.6039 27.8683 18.5927C27.8746 18.5815 27.8784 18.569 27.8792 18.5561C28.4637 12.5169 26.901 7.27036 23.7387 2.62061C23.7356 2.61293 23.7308 2.606 23.7248 2.60028C23.7187 2.59455 23.7116 2.59015 23.7037 2.58736V2.58736ZM9.35725 15.3746C7.9765 15.3746 6.84075 14.1076 6.84075 12.5536C6.84075 10.9979 7.9555 9.73086 9.35725 9.73086C10.7695 9.73086 11.8947 11.0084 11.8737 12.5536C11.8737 14.1076 10.759 15.3746 9.35725 15.3746ZM18.6602 15.3746C17.2812 15.3746 16.1437 14.1076 16.1437 12.5536C16.1437 10.9979 17.2585 9.73086 18.6602 9.73086C20.0725 9.73086 21.1995 11.0084 21.1767 12.5536C21.1767 14.1076 20.0725 15.3746 18.6602 15.3746Z" fill="#ECDBBA"/>
</svg>
