<svg width="19" height="20" viewBox="0 0 19 20" fill="none" xmlns="http://www.w3.org/2000/svg">
<path fill-rule="evenodd" clip-rule="evenodd" d="M1.1875 9.99998C1.1875 10.1575 1.25006 10.3085 1.36141 10.4198C1.47276 10.5312 1.62378 10.5937 1.78125 10.5937H15.7854L12.0484 14.3296C11.9369 14.4411 11.8743 14.5923 11.8743 14.75C11.8743 14.9077 11.9369 15.0589 12.0484 15.1704C12.1599 15.2818 12.3111 15.3445 12.4688 15.3445C12.6264 15.3445 12.7776 15.2818 12.8891 15.1704L17.6391 10.4204C17.6944 10.3652 17.7383 10.2997 17.7682 10.2275C17.7982 10.1554 17.8136 10.0781 17.8136 9.99998C17.8136 9.92188 17.7982 9.84455 17.7682 9.77242C17.7383 9.70028 17.6944 9.63476 17.6391 9.57961L12.8891 4.82961C12.7776 4.71812 12.6264 4.65548 12.4688 4.65548C12.3111 4.65548 12.1599 4.71812 12.0484 4.82961C11.9369 4.9411 11.8743 5.09231 11.8743 5.24998C11.8743 5.40765 11.9369 5.55887 12.0484 5.67036L15.7854 9.40623H1.78125C1.62378 9.40623 1.47276 9.46879 1.36141 9.58014C1.25006 9.69149 1.1875 9.84251 1.1875 9.99998Z" fill="#ECDBBA"/>
</svg>
